<svg width="20" height="20" viewBox="0 0 20 20" fill="none" xmlns="http://www.w3.org/2000/svg">
<mask id="mask0_281_14222" style="mask-type:alpha" maskUnits="userSpaceOnUse" x="0" y="0" width="20" height="20">
<rect width="20" height="20" fill="#D9D9D9"/>
</mask>
<g mask="url(#mask0_281_14222)">
<path d="M10.0412 10.5L11.9995 9.3125L13.9579 10.5L13.437 8.27083L15.1662 6.79167L12.8954 6.58333L11.9995 4.5L11.1037 6.58333L8.83286 6.79167L10.562 8.27083L10.0412 10.5ZM4.89536 18C4.49258 18.0556 4.12453 17.9549 3.79119 17.6979C3.45786 17.441 3.26342 17.1111 3.20786 16.7083L1.99953 7.77083C1.94397 7.35417 2.04119 6.98264 2.29119 6.65625C2.54119 6.32986 2.87453 6.13889 3.29119 6.08333L4.49953 5.9375V12.5C4.49953 13.3333 4.79814 14.0417 5.39536 14.625C5.99258 15.2083 6.70786 15.5 7.54119 15.5H15.0829C15.0412 15.8333 14.8988 16.1215 14.6558 16.3646C14.4127 16.6076 14.1315 16.75 13.812 16.7917L4.89536 18ZM7.49953 14C7.04119 14 6.67661 13.8646 6.40578 13.5938C6.13494 13.3229 5.99953 12.9583 5.99953 12.5V3.5C5.99953 3.04167 6.13494 2.67708 6.40578 2.40625C6.67661 2.13542 7.04119 2 7.49953 2H16.4995C16.9579 2 17.3224 2.13542 17.5933 2.40625C17.8641 2.67708 17.9995 3.04167 17.9995 3.5V12.5C17.9995 12.9583 17.8641 13.3229 17.5933 13.5938C17.3224 13.8646 16.9579 14 16.4995 14H7.49953Z" fill="#1C1B1F"/>
</g>
</svg>
