<svg width="30" height="30" viewBox="0 0 30 30" fill="none" xmlns="http://www.w3.org/2000/svg">
<mask id="mask0_281_13191" style="mask-type:alpha" maskUnits="userSpaceOnUse" x="0" y="0" width="30" height="30">
<rect width="30" height="30" fill="#D9D9D9"/>
</mask>
<g mask="url(#mask0_281_13191)">
<path d="M15.2816 15.6251L18.1253 13.9063L20.9691 15.6251L20.2191 12.3751L22.7191 10.2188L19.4378 9.93756L18.1253 6.87506L16.8128 9.93756L13.5316 10.2188L16.0316 12.3751L15.2816 15.6251ZM15.8753 23.7501H22.8753C22.7295 24.2917 22.4795 24.7292 22.1253 25.0626C21.7712 25.3959 21.3128 25.6042 20.7503 25.6876L7.12533 27.3438C6.43783 27.448 5.81803 27.2865 5.26595 26.8594C4.71387 26.4323 4.39616 25.8751 4.31283 25.1876L2.65658 11.5313C2.57324 10.8438 2.73991 10.2292 3.15658 9.68756C3.57324 9.14589 4.12533 8.83339 4.81283 8.75006L6.25033 8.56256V11.0626L5.12533 11.2188L6.81283 24.8751L15.8753 23.7501ZM11.2503 21.2501C10.5628 21.2501 9.97428 21.0053 9.4847 20.5157C8.99512 20.0261 8.75033 19.4376 8.75033 18.7501V5.00006C8.75033 4.31256 8.99512 3.72402 9.4847 3.23444C9.97428 2.74485 10.5628 2.50006 11.2503 2.50006H25.0003C25.6878 2.50006 26.2764 2.74485 26.766 3.23444C27.2555 3.72402 27.5003 4.31256 27.5003 5.00006V18.7501C27.5003 19.4376 27.2555 20.0261 26.766 20.5157C26.2764 21.0053 25.6878 21.2501 25.0003 21.2501H11.2503ZM11.2503 18.7501H25.0003V5.00006H11.2503V18.7501Z" fill="#EA580C"/>
</g>
</svg>
