<svg width="48" height="48" viewBox="0 0 48 48" fill="none" xmlns="http://www.w3.org/2000/svg">
<mask id="mask0_281_13272" style="mask-type:alpha" maskUnits="userSpaceOnUse" x="0" y="0" width="48" height="48">
<rect width="48" height="48" fill="#D9D9D9"/>
</mask>
<g mask="url(#mask0_281_13272)">
<path d="M1.99902 40V34.4C1.99902 33.2667 2.29069 32.225 2.87402 31.275C3.45736 30.325 4.23236 29.6 5.19902 29.1C7.26569 28.0667 9.36569 27.2917 11.499 26.775C13.6324 26.2583 15.799 26 17.999 26C20.199 26 22.3657 26.2583 24.499 26.775C26.6324 27.2917 28.7324 28.0667 30.799 29.1C31.7657 29.6 32.5407 30.325 33.124 31.275C33.7074 32.225 33.999 33.2667 33.999 34.4V40H1.99902ZM37.999 40V34C37.999 32.5333 37.5907 31.125 36.774 29.775C35.9574 28.425 34.799 27.2667 33.299 26.3C34.999 26.5 36.599 26.8417 38.099 27.325C39.599 27.8083 40.999 28.4 42.299 29.1C43.499 29.7667 44.4157 30.5083 45.049 31.325C45.6824 32.1417 45.999 33.0333 45.999 34V40H37.999ZM12.349 21.65C10.7824 20.0833 9.99902 18.2 9.99902 16C9.99902 13.8 10.7824 11.9167 12.349 10.35C13.9157 8.78333 15.799 8 17.999 8C20.199 8 22.0824 8.78333 23.649 10.35C25.2157 11.9167 25.999 13.8 25.999 16C25.999 18.2 25.2157 20.0833 23.649 21.65C22.0824 23.2167 20.199 24 17.999 24C15.799 24 13.9157 23.2167 12.349 21.65ZM35.649 21.65C34.0824 23.2167 32.199 24 29.999 24C29.6324 24 29.1657 23.9583 28.599 23.875C28.0324 23.7917 27.5657 23.7 27.199 23.6C28.099 22.5333 28.7907 21.35 29.274 20.05C29.7574 18.75 29.999 17.4 29.999 16C29.999 14.6 29.7574 13.25 29.274 11.95C28.7907 10.65 28.099 9.46667 27.199 8.4C27.6657 8.23333 28.1324 8.125 28.599 8.075C29.0657 8.025 29.5324 8 29.999 8C32.199 8 34.0824 8.78333 35.649 10.35C37.2157 11.9167 37.999 13.8 37.999 16C37.999 18.2 37.2157 20.0833 35.649 21.65ZM5.99902 36H29.999V34.4C29.999 34.0333 29.9074 33.7 29.724 33.4C29.5407 33.1 29.299 32.8667 28.999 32.7C27.199 31.8 25.3824 31.125 23.549 30.675C21.7157 30.225 19.8657 30 17.999 30C16.1324 30 14.2824 30.225 12.449 30.675C10.6157 31.125 8.79902 31.8 6.99902 32.7C6.69902 32.8667 6.45736 33.1 6.27402 33.4C6.09069 33.7 5.99902 34.0333 5.99902 34.4V36ZM20.824 18.825C21.6074 18.0417 21.999 17.1 21.999 16C21.999 14.9 21.6074 13.9583 20.824 13.175C20.0407 12.3917 19.099 12 17.999 12C16.899 12 15.9574 12.3917 15.174 13.175C14.3907 13.9583 13.999 14.9 13.999 16C13.999 17.1 14.3907 18.0417 15.174 18.825C15.9574 19.6083 16.899 20 17.999 20C19.099 20 20.0407 19.6083 20.824 18.825Z" fill="#4B5563"/>
</g>
</svg>
