<svg width="28" height="28" viewBox="0 0 28 28" fill="none" xmlns="http://www.w3.org/2000/svg">
<mask id="mask0_278_12579" style="mask-type:alpha" maskUnits="userSpaceOnUse" x="0" y="0" width="28" height="28">
<rect width="28" height="28" fill="#D9D9D9"/>
</mask>
<g mask="url(#mask0_278_12579)">
<path d="M6.28188 16.221V13.9999H8.50292V16.221H6.28188ZM4.06055 13.9999V11.7789H6.28188V13.9999H4.06055ZM13.9997 6.28213V4.06079H16.2207V6.28213H13.9997ZM5.45151 9.33325H9.33301V5.45175H5.45151V9.33325ZM4.06055 10.7242V4.06079H10.724V10.7242H4.06055ZM5.45151 22.5481H9.42284V18.6666H5.45151V22.5481ZM4.06055 23.939V17.2756H10.8138V23.939H4.06055ZM18.6663 9.33325H22.5478V5.45175H18.6663V9.33325ZM17.2754 10.7242V4.06079H23.9388V10.7242H17.2754ZM10.724 16.221V13.9999H8.50292V11.7789H12.9453V16.221H10.724ZM11.7786 10.7242V6.28213H13.9997V8.50317H16.2207V10.7242H11.7786ZM6.58463 8.20013V6.58488H8.19988V8.20013H6.58463ZM6.66309 21.3365V19.721H8.27863V21.3365H6.66309ZM19.7995 8.20013V6.58488H21.4147V8.20013H19.7995ZM18.6888 23.939V20.439H15.1888V18.689H18.6888V15.189H20.4388V18.689H23.9388V20.439H20.4388V23.939H18.6888Z" fill="white"/>
</g>
</svg>
