<svg width="48" height="48" viewBox="0 0 48 48" fill="none" xmlns="http://www.w3.org/2000/svg">
<mask id="mask0_281_13315" style="mask-type:alpha" maskUnits="userSpaceOnUse" x="0" y="0" width="48" height="48">
<rect width="48" height="48" fill="#D9D9D9"/>
</mask>
<g mask="url(#mask0_281_13315)">
<path d="M5 14.0385V5H14.0385V8H8V14.0385H5ZM5 43V33.9615H8V40H14.0385V43H5ZM33.9615 43V40H40V33.9615H43V43H33.9615ZM40 14.0385V8H33.9615V5H43V14.0385H40ZM34.4425 34.4425H37.154V37.154H34.4425V34.4425ZM34.4425 29.019H37.154V31.7305H34.4425V29.019ZM31.7305 31.7305H34.4425V34.4425H31.7305V31.7305ZM29.019 34.4425H31.7305V37.154H29.019V34.4425ZM26.3075 31.7305H29.019V34.4425H26.3075V31.7305ZM31.7305 26.3075H34.4425V29.019H31.7305V26.3075ZM29.019 29.019H31.7305V31.7305H29.019V29.019ZM26.3075 26.3075H29.019V29.019H26.3075V26.3075ZM37.154 10.846V21.6925H26.3075V10.846H37.154ZM21.6925 26.3075V37.154H10.846V26.3075H21.6925ZM21.6925 10.846V21.6925H10.846V10.846H21.6925ZM19.3075 34.769V28.6925H13.231V34.769H19.3075ZM19.3075 19.3075V13.231H13.231V19.3075H19.3075ZM34.769 19.3075V13.231H28.6925V19.3075H34.769Z" fill="#4B5563"/>
</g>
</svg>
