<svg width="96" height="96" viewBox="0 0 96 96" fill="none" xmlns="http://www.w3.org/2000/svg">
<mask id="mask0_281_15453" style="mask-type:alpha" maskUnits="userSpaceOnUse" x="0" y="0" width="96" height="96">
<rect width="96" height="96" fill="#D9D9D9"/>
</mask>
<g mask="url(#mask0_281_15453)">
<path d="M24.0029 86C21.2083 86 18.8429 85.032 16.9069 83.096C14.9709 81.16 14.0029 78.7947 14.0029 76V66H26.0029V10.769L31.5419 15.539L37.1569 10.769L42.7719 15.539L48.3879 10.769L54.0029 15.539L59.6179 10.769L65.2339 15.539L70.8489 10.769L76.4639 15.539L82.0029 10.769V76C82.0029 78.7947 81.0349 81.16 79.0989 83.096C77.1629 85.032 74.7976 86 72.0029 86H24.0029ZM72.0029 80C73.1363 80 74.0863 79.6167 74.8529 78.85C75.6196 78.0834 76.0029 77.1334 76.0029 76V20H32.0029V66H68.0029V76C68.0029 77.1334 68.3863 78.0834 69.1529 78.85C69.9196 79.6167 70.8696 80 72.0029 80ZM36.7719 35V29H59.4639V35H36.7719ZM36.7719 47V41H59.4639V47H36.7719ZM67.7719 35.538C66.7926 35.538 65.9579 35.1934 65.2679 34.504C64.5786 33.814 64.2339 32.9794 64.2339 32C64.2339 31.0207 64.5786 30.186 65.2679 29.496C65.9579 28.8067 66.7926 28.462 67.7719 28.462C68.7513 28.462 69.5859 28.8067 70.2759 29.496C70.9659 30.186 71.3109 31.0207 71.3109 32C71.3109 32.9794 70.9659 33.814 70.2759 34.504C69.5859 35.1934 68.7513 35.538 67.7719 35.538ZM67.7719 47.538C66.7926 47.538 65.9579 47.1934 65.2679 46.504C64.5786 45.814 64.2339 44.9794 64.2339 44C64.2339 43.0207 64.5786 42.186 65.2679 41.496C65.9579 40.8067 66.7926 40.462 67.7719 40.462C68.7513 40.462 69.5859 40.8067 70.2759 41.496C70.9659 42.186 71.3109 43.0207 71.3109 44C71.3109 44.9794 70.9659 45.814 70.2759 46.504C69.5859 47.1934 68.7513 47.538 67.7719 47.538ZM24.0029 80H62.0029V72H20.0029V76C20.0029 77.1334 20.3863 78.0834 21.1529 78.85C21.9196 79.6167 22.8696 80 24.0029 80Z" fill="#A6AAB3"/>
</g>
</svg>
