<svg width="132" height="112" viewBox="0 0 132 112" fill="none" xmlns="http://www.w3.org/2000/svg">
<g opacity="0.05">
<path d="M66 81C67.4167 81 68.6042 80.5208 69.5625 79.5625C70.5208 78.6042 71 77.4167 71 76C71 74.5833 70.5208 73.3958 69.5625 72.4375C68.6042 71.4792 67.4167 71 66 71C64.5833 71 63.3958 71.4792 62.4375 72.4375C61.4792 73.3958 61 74.5833 61 76C61 77.4167 61.4792 78.6042 62.4375 79.5625C63.3958 80.5208 64.5833 81 66 81ZM66 61C67.4167 61 68.6042 60.5208 69.5625 59.5625C70.5208 58.6042 71 57.4167 71 56C71 54.5833 70.5208 53.3958 69.5625 52.4375C68.6042 51.4792 67.4167 51 66 51C64.5833 51 63.3958 51.4792 62.4375 52.4375C61.4792 53.3958 61 54.5833 61 56C61 57.4167 61.4792 58.6042 62.4375 59.5625C63.3958 60.5208 64.5833 61 66 61ZM66 41C67.4167 41 68.6042 40.5208 69.5625 39.5625C70.5208 38.6042 71 37.4167 71 36C71 34.5833 70.5208 33.3958 69.5625 32.4375C68.6042 31.4792 67.4167 31 66 31C64.5833 31 63.3958 31.4792 62.4375 32.4375C61.4792 33.3958 61 34.5833 61 36C61 37.4167 61.4792 38.6042 62.4375 39.5625C63.3958 40.5208 64.5833 41 66 41ZM106 96H26C23.25 96 20.8958 95.0208 18.9375 93.0625C16.9792 91.1042 16 88.75 16 86V66C18.75 66 21.1042 65.0208 23.0625 63.0625C25.0208 61.1042 26 58.75 26 56C26 53.25 25.0208 50.8958 23.0625 48.9375C21.1042 46.9792 18.75 46 16 46V26C16 23.25 16.9792 20.8958 18.9375 18.9375C20.8958 16.9792 23.25 16 26 16H106C108.75 16 111.104 16.9792 113.062 18.9375C115.021 20.8958 116 23.25 116 26V46C113.25 46 110.896 46.9792 108.938 48.9375C106.979 50.8958 106 53.25 106 56C106 58.75 106.979 61.1042 108.938 63.0625C110.896 65.0208 113.25 66 116 66V86C116 88.75 115.021 91.1042 113.062 93.0625C111.104 95.0208 108.75 96 106 96ZM106 86V73.25C102.917 71.4167 100.479 68.9792 98.6875 65.9375C96.8958 62.8958 96 59.5833 96 56C96 52.4167 96.8958 49.1042 98.6875 46.0625C100.479 43.0208 102.917 40.5833 106 38.75V26H26V38.75C29.0833 40.5833 31.5208 43.0208 33.3125 46.0625C35.1042 49.1042 36 52.4167 36 56C36 59.5833 35.1042 62.8958 33.3125 65.9375C31.5208 68.9792 29.0833 71.4167 26 73.25V86H106Z" fill="#121C2A"/>
</g>
</svg>
