<svg width="40" height="40" viewBox="0 0 40 40" fill="none" xmlns="http://www.w3.org/2000/svg">
<mask id="mask0_274_10889" style="mask-type:alpha" maskUnits="userSpaceOnUse" x="0" y="0" width="40" height="40">
<rect width="40" height="40" fill="#D9D9D9"/>
</mask>
<g mask="url(#mask0_274_10889)">
<path d="M8.9746 23.1729V20H12.1475V23.1729H8.9746ZM5.80127 20V16.8271H8.9746V20H5.80127ZM20 8.9746V5.80127H23.1729V8.9746H20ZM7.78835 13.3334H13.3334V7.78835H7.78835V13.3334ZM5.80127 15.3204V5.80127H15.3204V15.3204H5.80127ZM7.78835 32.2117H13.4617V26.6667H7.78835V32.2117ZM5.80127 34.1988V24.6796H15.4488V34.1988H5.80127ZM26.6667 13.3334H32.2117V7.78835H26.6667V13.3334ZM24.6796 15.3204V5.80127H34.1988V15.3204H24.6796ZM15.3204 23.1729V20H12.1475V16.8271H18.4938V23.1729H15.3204ZM16.8271 15.3204V8.9746H20V12.1475H23.1729V15.3204H16.8271ZM9.4071 11.7146V9.4071H11.7146V11.7146H9.4071ZM9.51919 30.4809V28.1729H11.8271V30.4809H9.51919ZM28.2854 11.7146V9.4071H30.5929V11.7146H28.2854ZM26.6988 34.1988V29.1988H21.6988V26.6988H26.6988V21.6988H29.1988V26.6988H34.1988V29.1988H29.1988V34.1988H26.6988Z" fill="#F97316"/>
</g>
</svg>
