<svg width="507" height="391" viewBox="0 0 507 391" fill="none" xmlns="http://www.w3.org/2000/svg">
<g clip-path="url(#clip0_38_6045)">
<rect width="507" height="391" fill="white"/>
<g clip-path="url(#clip1_38_6045)">
<path fill-rule="evenodd" clip-rule="evenodd" d="M370.024 285.292C369.032 287.523 369.473 289.243 370.221 291.811C372.573 292.897 374.234 293.972 376.303 294.588C378.038 292.418 379.676 291.358 383.12 290.753C378.371 287.608 375.285 286.539 370.024 285.292Z" fill="#F74F9E"/>
<path fill-rule="evenodd" clip-rule="evenodd" d="M451.065 276.942C451.535 273.603 452.095 271.707 453.665 268.681C452.196 267.89 450.803 267.472 449.261 267.675C448.01 269.602 447.022 272.273 446.039 275.971C448.433 275.434 449.74 275.547 451.065 276.942Z" fill="#61BA47"/>
<path fill-rule="evenodd" clip-rule="evenodd" d="M401.515 315.686C402.11 312.367 402.74 310.493 404.423 307.529C402.985 306.683 401.608 306.213 400.059 306.358C398.737 308.237 397.649 310.869 396.529 314.528C398.941 314.081 400.243 314.243 401.515 315.686Z" fill="#FF5257"/>
<path fill-rule="evenodd" clip-rule="evenodd" d="M344.643 78.4652C346.811 77.3442 347.542 75.7255 348.564 73.2535C347.407 70.9362 346.782 69.059 345.553 67.285C342.842 67.8933 340.901 67.6966 337.834 66.0157C339.575 71.4402 341.316 74.2035 344.643 78.4652Z" fill="#A550A7"/>
<path fill-rule="evenodd" clip-rule="evenodd" d="M347.03 236.503C349.065 235.156 349.619 233.469 350.37 230.901C348.972 228.721 348.149 226.922 346.737 225.29C344.107 226.185 342.156 226.197 338.927 224.854C341.239 230.061 343.265 232.622 347.03 236.503Z" fill="#F74F9E"/>
<path fill-rule="evenodd" clip-rule="evenodd" d="M31.9445 232.577C31.7258 229.212 31.8879 227.241 32.8095 223.96C31.2108 223.483 29.7614 223.358 28.2926 223.87C27.4601 226.011 27.0359 228.828 26.8264 232.649C29.0603 231.636 30.3631 231.48 31.9445 232.577Z" fill="#F74F9E"/>
<path fill-rule="evenodd" clip-rule="evenodd" d="M474.399 219.892C474.579 217.458 473.583 215.987 472.011 213.823C469.431 213.595 467.505 213.145 465.349 213.264C464.449 215.892 463.265 217.443 460.228 219.176C465.761 220.532 469.026 220.496 474.399 219.892Z" fill="#F74F9E"/>
<path fill-rule="evenodd" clip-rule="evenodd" d="M257.958 334.193C259.515 331.202 260.676 329.602 263.165 327.273C262.045 326.037 260.871 325.178 259.349 324.855C257.527 326.254 255.704 328.443 253.544 331.601C255.979 331.893 257.174 332.436 257.958 334.193Z" fill="#007AFF"/>
<path fill-rule="evenodd" clip-rule="evenodd" d="M438.643 266.478C435.649 264.928 434.045 263.772 431.71 261.288C430.477 262.411 429.621 263.588 429.302 265.11C430.705 266.929 432.899 268.746 436.062 270.898C436.349 268.462 436.888 267.266 438.643 266.478Z" fill="#FF5257"/>
<path fill-rule="evenodd" clip-rule="evenodd" d="M116.19 84.6182C113.887 83.81 112.207 84.3883 109.708 85.3411C108.815 87.7723 107.878 89.5146 107.431 91.6263C109.734 93.1814 110.922 94.7288 111.803 98.1127C114.555 93.1248 115.372 89.9629 116.19 84.6182Z" fill="#A550A7"/>
<path fill-rule="evenodd" clip-rule="evenodd" d="M150.863 266.678C148.45 267.043 147.237 268.341 145.476 270.353C145.826 272.919 145.815 274.898 146.409 276.973C149.172 277.268 150.947 278.078 153.31 280.655C153.405 274.959 152.645 271.783 150.863 266.678Z" fill="#FF5257"/>
<path fill-rule="evenodd" clip-rule="evenodd" d="M215.541 268.151C218.294 266.203 220.057 265.31 223.336 264.377C222.905 262.766 222.253 261.465 221.048 260.482C218.787 260.893 216.165 262.006 212.8 263.828C214.833 265.201 215.647 266.23 215.541 268.151Z" fill="#007AFF"/>
<path fill-rule="evenodd" clip-rule="evenodd" d="M333.466 239.465C331.334 240.653 330.653 242.293 329.71 244.796C330.938 247.076 331.621 248.933 332.906 250.668C335.596 249.975 337.543 250.111 340.66 251.695C338.75 246.328 336.925 243.62 333.466 239.465Z" fill="#A550A7"/>
<path fill-rule="evenodd" clip-rule="evenodd" d="M245.974 240.722C249.279 240.055 251.254 239.952 254.629 240.427C254.887 238.779 254.818 237.326 254.114 235.939C251.88 235.4 249.032 235.356 245.218 235.66C246.52 237.738 246.849 239.008 245.974 240.722Z" fill="#A550A7"/>
<path fill-rule="evenodd" clip-rule="evenodd" d="M344.378 175.397C346.715 176.102 348.367 175.449 350.821 174.386C351.604 171.917 352.463 170.135 352.815 168.005C350.446 166.555 349.189 165.062 348.159 161.721C345.632 166.826 344.957 170.021 344.378 175.397Z" fill="#FFC700"/>
<path fill-rule="evenodd" clip-rule="evenodd" d="M441.385 337.65C438.024 337.387 436.096 336.946 432.98 335.566C432.28 337.081 431.95 338.497 432.248 340.024C434.248 341.153 436.976 341.974 440.727 342.726C440.043 340.371 440.075 339.059 441.385 337.65Z" fill="#FFC700"/>
<path fill-rule="evenodd" clip-rule="evenodd" d="M41.4046 288.541C40.1065 286.474 38.4323 285.881 35.8837 285.069C33.671 286.415 31.8526 287.195 30.1875 288.568C31.02 291.219 30.9861 293.17 29.5671 296.365C34.8272 294.178 37.4356 292.213 41.4046 288.541Z" fill="#FF5257"/>
<path fill-rule="evenodd" clip-rule="evenodd" d="M462.144 320.431C459.728 320.087 458.193 320.982 455.928 322.403C455.526 324.962 454.946 326.854 454.919 329.012C457.481 330.088 458.948 331.374 460.472 334.522C462.199 329.093 462.383 325.833 462.144 320.431Z" fill="#007AFF"/>
<path fill-rule="evenodd" clip-rule="evenodd" d="M355.498 327.953C353.14 327.324 351.51 328.03 349.091 329.172C348.388 331.664 347.587 333.474 347.303 335.613C349.718 336.987 351.022 338.439 352.16 341.745C354.521 336.56 355.093 333.345 355.498 327.953Z" fill="#F74F9E"/>
<path fill-rule="evenodd" clip-rule="evenodd" d="M229.547 343.296C231.634 342.031 232.255 340.366 233.107 337.831C231.796 335.597 231.046 333.766 229.699 332.08C227.036 332.87 225.086 332.805 221.913 331.335C224.016 336.629 225.939 339.269 229.547 343.296Z" fill="#FFC700"/>
<path fill-rule="evenodd" clip-rule="evenodd" d="M398.577 196.087C396.695 197.64 396.321 199.377 395.844 202.009C397.463 204.03 398.47 205.733 400.046 207.208C402.567 206.042 404.506 205.825 407.858 206.821C405.013 201.886 402.729 199.552 398.577 196.087Z" fill="#F74F9E"/>
<path fill-rule="evenodd" clip-rule="evenodd" d="M243.289 108.174C240.594 106.146 239.206 104.739 237.318 101.901C235.914 102.803 234.874 103.82 234.306 105.268C235.387 107.295 237.247 109.453 240.007 112.102C240.696 109.748 241.427 108.658 243.289 108.174Z" fill="#FFC700"/>
<path fill-rule="evenodd" clip-rule="evenodd" d="M428.275 218.403C428.657 220.813 429.963 222.016 431.989 223.763C434.552 223.395 436.531 223.392 438.601 222.783C438.877 220.018 439.674 218.237 442.234 215.855C436.537 215.801 433.367 216.584 428.275 218.403Z" fill="#FF5257"/>
<path fill-rule="evenodd" clip-rule="evenodd" d="M13.9546 274.914C15.4646 277.93 16.0816 279.808 16.5087 283.189C18.1668 283.007 19.5509 282.559 20.7048 281.515C20.6391 279.219 19.9346 276.459 18.6419 272.858C16.9776 274.659 15.8378 275.309 13.9546 274.914Z" fill="#FFC700"/>
<path fill-rule="evenodd" clip-rule="evenodd" d="M93.4115 153.397C91.0109 151.029 89.8219 149.45 88.3285 146.386C86.8176 147.093 85.6514 147.963 84.8951 149.322C85.6968 151.475 87.2527 153.861 89.6363 156.854C90.6317 154.612 91.5014 153.63 93.4115 153.397Z" fill="#A550A7"/>
<path fill-rule="evenodd" clip-rule="evenodd" d="M233.962 385.295C237.33 385.116 239.298 385.302 242.568 386.263C243.064 384.67 243.207 383.223 242.712 381.748C240.581 380.89 237.77 380.431 233.952 380.176C234.938 382.422 235.078 383.726 233.962 385.295Z" fill="#FFC700"/>
<path fill-rule="evenodd" clip-rule="evenodd" d="M192.878 311.59C193.828 313.839 195.385 314.693 197.771 315.903C200.171 314.929 202.091 314.452 203.954 313.363C203.558 310.613 203.904 308.693 205.818 305.766C200.275 307.082 197.385 308.603 192.878 311.59Z" fill="#007AFF"/>
<path fill-rule="evenodd" clip-rule="evenodd" d="M345.195 172.571C347.546 173.224 349.184 172.535 351.613 171.417C352.342 168.932 353.16 167.131 353.465 164.994C351.064 163.596 349.775 162.132 348.67 158.814C346.257 163.975 345.654 167.184 345.195 172.571Z" fill="#F74F9E"/>
<path fill-rule="evenodd" clip-rule="evenodd" d="M296.111 371.003C297.896 372.667 299.666 372.811 302.338 372.941C304.131 371.072 305.688 369.852 306.945 368.097C305.46 365.749 304.992 363.855 305.543 360.402C301.021 363.866 299.004 366.435 296.111 371.003Z" fill="#F74F9E"/>
<path fill-rule="evenodd" clip-rule="evenodd" d="M60.4143 334.339C63.6791 333.496 65.645 333.287 69.0411 333.579C69.2101 331.919 69.0627 330.472 68.2847 329.125C66.0257 328.707 63.1795 328.817 59.3871 329.325C60.7994 331.33 61.1957 332.581 60.4143 334.339Z" fill="#F74F9E"/>
<path fill-rule="evenodd" clip-rule="evenodd" d="M282.915 223.937C285.179 223.026 286.061 221.484 287.312 219.119C286.38 216.703 285.936 214.775 284.879 212.893C282.123 213.242 280.209 212.862 277.316 210.898C278.535 216.463 280.006 219.379 282.915 223.937Z" fill="#F74F9E"/>
<path fill-rule="evenodd" clip-rule="evenodd" d="M347.81 278.613C349.78 277.172 350.253 275.46 350.881 272.86C349.381 270.748 348.475 268.99 346.986 267.427C344.401 268.445 342.453 268.55 339.165 267.362C341.72 272.453 343.866 274.915 347.81 278.613Z" fill="#A550A7"/>
<path fill-rule="evenodd" clip-rule="evenodd" d="M92.6038 289.432C92.6259 291.873 93.7403 293.256 95.4854 295.283C98.0752 295.297 100.032 295.586 102.17 295.289C102.851 292.596 103.902 290.952 106.786 288.974C101.16 288.08 97.9086 288.386 92.6038 289.432Z" fill="#FFC700"/>
<path fill-rule="evenodd" clip-rule="evenodd" d="M100.096 334.515C101.371 336.596 103.039 337.208 105.578 338.047C107.806 336.725 109.633 335.966 111.313 334.611C110.509 331.951 110.564 330.001 112.018 326.821C106.734 328.951 104.105 330.887 100.096 334.515Z" fill="#FF5257"/>
<path fill-rule="evenodd" clip-rule="evenodd" d="M216.959 161.78C219.253 162.613 220.939 162.053 223.448 161.128C224.367 158.707 225.324 156.975 225.794 154.868C223.509 153.288 222.337 151.728 221.494 148.334C218.687 153.291 217.836 156.444 216.959 161.78Z" fill="#FF5257"/>
<path fill-rule="evenodd" clip-rule="evenodd" d="M235.539 359.513C237.83 360.354 239.517 359.799 242.03 358.882C242.957 356.464 243.919 354.735 244.396 352.63C242.116 351.042 240.95 349.478 240.117 346.082C237.294 351.03 236.433 354.18 235.539 359.513Z" fill="#A550A7"/>
<path fill-rule="evenodd" clip-rule="evenodd" d="M308.305 254.451C306.238 251.787 305.268 250.064 304.191 246.83C302.6 247.332 301.33 248.04 300.401 249.288C300.912 251.528 302.139 254.098 304.107 257.379C305.39 255.289 306.381 254.429 308.305 254.451Z" fill="#A550A7"/>
<path fill-rule="evenodd" clip-rule="evenodd" d="M240.136 179.962C238.936 177.837 237.292 177.165 234.784 176.234C232.511 177.475 230.658 178.167 228.93 179.461C229.637 182.148 229.511 184.095 227.943 187.221C233.3 185.283 235.998 183.443 240.136 179.962Z" fill="#61BA47"/>
</g>
</g>
<defs>
<clipPath id="clip0_38_6045">
<rect width="507" height="391" fill="white"/>
</clipPath>
<clipPath id="clip1_38_6045">
<rect width="506.852" height="391" fill="white"/>
</clipPath>
</defs>
</svg>
