<svg width="24" height="24" viewBox="0 0 24 24" fill="none" xmlns="http://www.w3.org/2000/svg">
<mask id="mask0_187_5314" style="mask-type:alpha" maskUnits="userSpaceOnUse" x="0" y="0" width="24" height="24">
<rect width="24" height="24" fill="#D9D9D9"/>
</mask>
<g mask="url(#mask0_187_5314)">
<path d="M10.548 16.5663L17.6148 9.49951L16.3813 8.28276L10.548 14.1163L7.59805 11.1663L6.3813 12.3828L10.548 16.5663ZM11.998 21.9995C10.6259 21.9995 9.33147 21.737 8.1148 21.212C6.89813 20.687 5.83696 19.9718 4.9313 19.0663C4.0258 18.1606 3.31055 17.0994 2.78555 15.8828C2.26055 14.6661 1.99805 13.3717 1.99805 11.9995C1.99805 10.6162 2.26055 9.31618 2.78555 8.09951C3.31055 6.88285 4.0258 5.82451 4.9313 4.92451C5.83696 4.02451 6.89813 3.31201 8.1148 2.78701C9.33147 2.26201 10.6259 1.99951 11.998 1.99951C13.3814 1.99951 14.6814 2.26201 15.8981 2.78701C17.1147 3.31201 18.173 4.02451 19.0731 4.92451C19.9731 5.82451 20.6856 6.88285 21.2106 8.09951C21.7356 9.31618 21.9981 10.6162 21.9981 11.9995C21.9981 13.3717 21.7356 14.6661 21.2106 15.8828C20.6856 17.0994 19.9731 18.1606 19.0731 19.0663C18.173 19.9718 17.1147 20.687 15.8981 21.212C14.6814 21.737 13.3814 21.9995 11.998 21.9995Z" fill="#EA580C"/>
</g>
</svg>
