<svg width="132" height="133" viewBox="0 0 132 133" fill="none" xmlns="http://www.w3.org/2000/svg">
<path d="M130 119.77C130 119.77 125.368 107.417 124.982 106.066C124.595 104.715 123.63 80.5869 122.858 75.7614C122.858 69.1986 97.283 44.7332 97.283 44.7332V65.9173L105.293 75.7614C106.065 78.0776 105.937 84.4474 106.258 87.3427L97.283 79.5253M95.0632 116.875L102.977 130.193M95.0632 116.875L102.977 120.928M95.0632 116.875C93.149 115.371 91.2346 108.83 90.4182 102.398M97.283 79.5253L88.3075 71.7079C86.1842 68.2335 76.1471 72.094 79.0424 79.4288C80.741 82.826 87.9214 91.2031 90.0447 94.8705C89.9321 97.122 90.0821 99.7509 90.4182 102.398M97.283 79.5253V9.94101C96.9934 7.36738 95.1405 2.18154 90.0447 2.02712C88.2654 1.9732 84.1439 1.94909 79.0424 1.94329M90.4182 102.398C78.9698 102.591 54.5287 102.862 48.352 102.398C42.1753 101.935 40.6311 96.4147 40.6311 93.7124C40.6311 68.1049 40.6311 15.5 40.6311 9.94101C41.0944 3.30106 46.4861 1.89844 49.1241 2.02712C51.694 2.01276 54.7079 1.9572 58.1961 1.94329M79.0424 1.94329C79.5571 3.70843 79.5443 7.31591 75.375 7.62475C71.2057 7.93358 64.1154 7.75343 61.0914 7.62475C60.1263 7.58368 57.8872 5.92301 58.1961 1.94329M79.0424 1.94329C72.7937 1.93618 64.8817 1.91661 58.1961 1.94329" stroke="#1F2937" stroke-width="3.85938" stroke-linecap="round"/>
<mask id="mask0_321_5215" style="mask-type:alpha" maskUnits="userSpaceOnUse" x="43" y="24" width="52" height="52">
<rect x="43.7194" y="24.707" width="50.6222" height="50.6222" fill="#D9D9D9"/>
</mask>
<g mask="url(#mask0_321_5215)">
<path d="M71.6622 69.0004V64.7818H75.5133V69.0004H71.6622ZM67.8112 64.7818V54.2355H71.6622V64.7818H67.8112ZM83.2154 58.4541V50.017H87.0664V58.4541H83.2154ZM79.3643 50.017V45.7985H83.2154V50.017H79.3643ZM56.258 54.2355V50.017H60.1091V54.2355H56.258ZM52.407 50.017V45.7985H56.258V50.017H52.407ZM69.7367 35.2522V31.0337H73.5878V35.2522H69.7367ZM55.2953 40.5254H61.0718V34.1976H55.2953V40.5254ZM52.407 43.6892V31.0337H63.9601V43.6892H52.407ZM55.2953 65.8365H61.0718V59.5087H55.2953V65.8365ZM52.407 69.0004V56.3448H63.9601V69.0004H52.407ZM78.4016 40.5254H84.1782V34.1976H78.4016V40.5254ZM75.5133 43.6892V31.0337H87.0664V43.6892H75.5133ZM79.3643 69.0004V62.6726H75.5133V58.4541H83.2154V64.7818H87.0664V69.0004H79.3643ZM71.6622 54.2355V50.017H79.3643V54.2355H71.6622ZM63.9601 54.2355V50.017H60.1091V45.7985H71.6622V50.017H67.8112V54.2355H63.9601ZM65.8857 43.6892V35.2522H69.7367V39.4707H73.5878V43.6892H65.8857ZM56.7394 38.9434V35.7795H59.6277V38.9434H56.7394ZM56.7394 64.2545V61.0906H59.6277V64.2545H56.7394ZM79.8457 38.9434V35.7795H82.734V38.9434H79.8457Z" fill="#6B7280"/>
</g>
<line x1="43.7194" y1="50.5723" x2="94.291" y2="50.5723" stroke="#F55E00" stroke-width="3.85938"/>
<path d="M62.2495 94.5801H75.954" stroke="#1F2937" stroke-width="2.31563" stroke-linecap="round"/>
<path d="M69.1982 50.3788L-1.52588e-05 78.7529V17.3721L69.1982 50.3788Z" fill="url(#paint0_linear_321_5215)"/>
<defs>
<linearGradient id="paint0_linear_321_5215" x1="0.0964977" y1="48.2555" x2="69.1982" y2="50.3788" gradientUnits="userSpaceOnUse">
<stop stop-color="#F97316" stop-opacity="0"/>
<stop offset="1" stop-color="#F97316" stop-opacity="0.8"/>
</linearGradient>
</defs>
</svg>
