<svg width="109" height="109" viewBox="0 0 109 109" fill="none" xmlns="http://www.w3.org/2000/svg">
<mask id="mask0_355_9344" style="mask-type:alpha" maskUnits="userSpaceOnUse" x="0" y="-1" width="109" height="110">
<rect y="108.365" width="108.365" height="108.365" transform="rotate(-90 0 108.365)" fill="#D9D9D9"/>
</mask>
<g mask="url(#mask0_355_9344)">
<path d="M94.8192 49.667H85.7888V40.6366H94.8192V49.667ZM85.7888 58.6974H63.2127V49.667H85.7888V58.6974ZM72.2431 22.5758H54.1823V13.5454H72.2431V22.5758ZM54.1823 31.6062H45.1519V22.5758H54.1823V31.6062ZM63.2127 85.7887H54.1823V76.7583H63.2127V85.7887ZM54.1823 94.8191H45.1519V85.7887H54.1823V94.8191ZM22.5759 54.1822H13.5454L13.5454 45.1518H22.5759L22.5759 54.1822ZM33.8639 88.0463V74.5007H20.3183V88.0463H33.8639ZM40.6367 94.8191H13.5454L13.5454 67.7279H40.6367V94.8191ZM88.0464 88.0463V74.5007H74.5008V88.0463H88.0464ZM94.8192 94.8191H67.7279V67.7279H94.8192V94.8191ZM33.8639 33.8638V20.3182H20.3183V33.8638H33.8639ZM40.6367 40.6366H13.5454L13.5454 13.5454H40.6367V40.6366ZM94.8192 31.6062H81.2736V40.6366H72.2431V22.5758H85.7888V13.5454H94.8192V31.6062ZM63.2127 49.667H54.1823L54.1823 31.6062H63.2127L63.2127 49.667ZM63.2127 67.7279H54.1823V76.7583H45.1519V49.667H54.1823V58.6974H63.2127V67.7279ZM40.6367 63.2127H22.5759V54.1822H31.6063V45.1518H40.6367V63.2127ZM30.4775 84.6599H23.7047V77.8871H30.4775V84.6599ZM84.66 84.6599H77.8872V77.8871H84.66V84.6599ZM30.4775 30.4774H23.7047V23.7046H30.4775V30.4774Z" fill="#1F2937"/>
</g>
</svg>
