<svg width="24" height="24" viewBox="0 0 24 24" fill="none" xmlns="http://www.w3.org/2000/svg">
<mask id="mask0_92_11845" style="mask-type:alpha" maskUnits="userSpaceOnUse" x="0" y="0" width="24" height="24">
<rect width="24" height="24" fill="#D9D9D9"/>
</mask>
<g mask="url(#mask0_92_11845)">
<path d="M4 16.7885V19H20V16.7885H4ZM2.5 6.51926H7.075C6.99167 6.36926 6.9295 6.21092 6.8885 6.04426C6.8475 5.87759 6.827 5.70259 6.827 5.51926C6.827 4.82059 7.069 4.22926 7.553 3.74526C8.037 3.26126 8.62833 3.01926 9.327 3.01926C9.74617 3.01926 10.1339 3.12817 10.4902 3.34601C10.8466 3.56384 11.1575 3.83442 11.423 4.15776L11.9808 4.90401L12.5385 4.15776C12.7937 3.82192 13.1025 3.54817 13.465 3.33651C13.8277 3.12501 14.2182 3.01926 14.6367 3.01926C15.3341 3.01926 15.9247 3.26126 16.4085 3.74526C16.8925 4.22926 17.1345 4.82059 17.1345 5.51926C17.1345 5.70259 17.1156 5.87759 17.0778 6.04426C17.0399 6.21092 16.9762 6.36926 16.8865 6.51926H21.5V20.5H2.5V6.51926ZM4 14.2115H20V8.01926H14.2268L16.2693 10.8115L15.073 11.673L11.9808 7.47701L8.8885 11.673L7.69225 10.8115L9.704 8.01926H4V14.2115ZM10.0395 6.23176C10.2312 6.04009 10.327 5.80259 10.327 5.51926C10.327 5.23592 10.2312 4.99842 10.0395 4.80676C9.84783 4.61509 9.61033 4.51926 9.327 4.51926C9.04367 4.51926 8.80617 4.61509 8.6145 4.80676C8.42283 4.99842 8.327 5.23592 8.327 5.51926C8.327 5.80259 8.42283 6.04009 8.6145 6.23176C8.80617 6.42342 9.04367 6.51926 9.327 6.51926C9.61033 6.51926 9.84783 6.42342 10.0395 6.23176ZM14.6345 6.51926C14.9178 6.51926 15.1553 6.42342 15.347 6.23176C15.5387 6.04009 15.6345 5.80259 15.6345 5.51926C15.6345 5.23592 15.5387 4.99842 15.347 4.80676C15.1553 4.61509 14.9178 4.51926 14.6345 4.51926C14.3512 4.51926 14.1137 4.61509 13.922 4.80676C13.7303 4.99842 13.6345 5.23592 13.6345 5.51926C13.6345 5.80259 13.7303 6.04009 13.922 6.23176C14.1137 6.42342 14.3512 6.51926 14.6345 6.51926Z" fill="#1F2937"/>
</g>
</svg>
