<svg width="24" height="24" viewBox="0 0 24 24" fill="none" xmlns="http://www.w3.org/2000/svg">
<mask id="mask0_275_11720" style="mask-type:alpha" maskUnits="userSpaceOnUse" x="0" y="0" width="24" height="24">
<rect width="24" height="24" fill="#D9D9D9"/>
</mask>
<g mask="url(#mask0_275_11720)">
<path d="M2.5 22.1152V20.6152H21.5V22.1152H2.5ZM4.5 19.5V14.1538C3.93717 13.1321 3.50733 12.1043 3.2105 11.0703C2.91383 10.0363 2.7655 9.01992 2.7655 8.02125C2.7655 7.11992 2.88025 6.21125 3.10975 5.29525C3.33925 4.37925 3.645 3.40458 4.027 2.37125C4.12183 2.11092 4.27758 1.90067 4.49425 1.7405C4.71092 1.58017 4.95767 1.5 5.2345 1.5C5.60383 1.5 5.91733 1.63175 6.175 1.89525C6.43267 2.15875 6.53775 2.468 6.49025 2.823L6.225 4.99225C6.125 5.83075 6.21342 6.64042 6.49025 7.42125C6.76725 8.20192 7.17467 8.89358 7.7125 9.49625C8.25033 10.0988 8.88975 10.5833 9.63075 10.95C10.3718 11.3167 11.1615 11.5 12 11.5C13.0192 11.5 13.9929 11.5882 14.9212 11.7645C15.8494 11.9408 16.65 12.195 17.323 12.527C18.0153 12.8718 18.5513 13.3128 18.9307 13.85C19.3102 14.3872 19.5 15.0538 19.5 15.85V19.5H4.5ZM6 18H18V15.85C18 15.418 17.8904 15.0382 17.6712 14.7105C17.4519 14.383 17.1333 14.1179 16.7153 13.9152C16.1026 13.6204 15.3751 13.3942 14.5328 13.2365C13.6904 13.0788 12.8462 13 12 13C10.9385 13 9.94008 12.7686 9.00475 12.3058C8.06958 11.8429 7.26642 11.2292 6.59525 10.4645C5.92408 9.69967 5.417 8.82467 5.074 7.8395C4.731 6.85417 4.623 5.841 4.75 4.8C4.58333 5.3 4.4625 5.82692 4.3875 6.38075C4.3125 6.93458 4.275 7.48142 4.275 8.02125C4.275 8.93008 4.43458 9.85283 4.75375 10.7895C5.07308 11.726 5.4885 12.709 6 13.7385V18ZM9.526 9.24325C8.842 8.55925 8.5 7.73458 8.5 6.76925C8.5 5.80392 8.842 4.97925 9.526 4.29525C10.21 3.61125 11.0347 3.26925 12 3.26925C12.9653 3.26925 13.79 3.61125 14.474 4.29525C15.158 4.97925 15.5 5.80392 15.5 6.76925C15.5 7.73458 15.158 8.55925 14.474 9.24325C13.79 9.92725 12.9653 10.2693 12 10.2693C11.0347 10.2693 10.21 9.92725 9.526 9.24325ZM13.4125 8.18175C13.8042 7.79008 14 7.31925 14 6.76925C14 6.21925 13.8042 5.74842 13.4125 5.35675C13.0208 4.96508 12.55 4.76925 12 4.76925C11.45 4.76925 10.9792 4.96508 10.5875 5.35675C10.1958 5.74842 10 6.21925 10 6.76925C10 7.31925 10.1958 7.79008 10.5875 8.18175C10.9792 8.57342 11.45 8.76925 12 8.76925C12.55 8.76925 13.0208 8.57342 13.4125 8.18175ZM8.26925 19.5V18.8345C8.26925 17.8077 8.62792 16.9311 9.34525 16.2048C10.0626 15.4786 10.9347 15.1155 11.9615 15.1155H15.6538V16.6152H11.9615C11.3435 16.6152 10.8237 16.8323 10.402 17.2663C9.98017 17.7003 9.76925 18.223 9.76925 18.8345V19.5H8.26925Z" fill="#A6AAB3"/>
</g>
</svg>
